<!DOCTYPE svg PUBLIC "-//W3C//DTD SVG 20010904//EN" "http://www.w3.org/TR/2001/REC-SVG-20010904/DTD/svg10.dtd">
<svg version="1.0" xmlns="http://www.w3.org/2000/svg" width="21px" height="20px" viewBox="0 0 210 200" preserveAspectRatio="xMidYMid meet">
<g id="layer101" fill="#d87176" stroke="none">
 <path d="M0 100 l0 -100 105 0 105 0 0 100 0 100 -105 0 -105 0 0 -100z"/>
 </g>
<g id="layer102" fill="#eca4a6" stroke="none">
 <path d="M2 97 l0 -100 57 6 c32 4 66 9 77 13 16 5 16 4 4 -5 -12 -8 -6 -11 26 -11 l42 0 0 99 0 99 -103 0 -103 0 0 -101z m59 79 c-13 -7 -30 -24 -37 -37 -7 -13 -13 -18 -14 -10 0 20 40 61 59 61 11 -1 8 -5 -8 -14z m116 -8 c13 -12 23 -29 23 -37 0 -10 -5 -6 -13 9 -7 13 -24 30 -37 37 -14 7 -19 13 -11 13 8 0 25 -10 38 -22z m2 -116 c5 -2 11 5 14 15 4 15 5 15 6 2 0 -9 -5 -22 -13 -28 -11 -9 -20 -2 -45 39 -17 27 -34 50 -37 50 -3 0 -15 -10 -26 -22 l-20 -23 14 25 c8 14 18 31 23 39 6 10 17 -1 42 -40 18 -30 38 -55 42 -57z m-118 -28 c13 -7 18 -13 10 -14 -20 0 -61 40 -61 59 1 11 5 8 14 -8 7 -13 24 -30 37 -37z"/>
 </g>
<g id="layer103" fill="#fdf3f2" stroke="none">
 <path d="M0 168 c1 -32 1 -32 16 -13 8 11 22 26 31 33 15 10 13 12 -15 12 -29 0 -32 -3 -32 -32z"/>
 <path d="M162 189 c10 -5 24 -19 33 -32 15 -21 15 -21 15 11 0 30 -2 32 -32 32 -27 -1 -30 -2 -16 -11z"/>
 <path d="M45 155 c-51 -50 -15 -135 57 -135 58 0 65 13 35 59 -31 46 -35 48 -53 24 -7 -10 -15 -15 -19 -11 -8 8 25 68 38 68 4 0 22 -22 39 -50 34 -54 48 -56 48 -6 0 70 -93 104 -145 51z"/>
 <path d="M0 33 c0 -31 2 -33 33 -33 29 1 31 2 14 15 -10 7 -25 22 -32 32 -13 17 -14 15 -15 -14z"/>
 <path d="M196 45 c-3 -8 -12 -15 -20 -15 -7 0 -16 -7 -20 -15 -4 -11 2 -15 24 -15 27 0 30 3 30 30 0 33 -5 38 -14 15z"/>
 </g>

</svg>